<?xml version="1.0" standalone="no"?>
<!DOCTYPE svg PUBLIC "-//W3C//DTD SVG 20010904//EN"
 "http://www.w3.org/TR/2001/REC-SVG-20010904/DTD/svg10.dtd">
<svg version="1.0" xmlns="http://www.w3.org/2000/svg"
 width="1024.000000pt" height="1024.000000pt" viewBox="0 0 1024.000000 1024.000000"
 preserveAspectRatio="xMidYMid meet">

<g transform="translate(0.000000,1024.000000) scale(0.100000,-0.100000)"
 stroke="none">
<path d="M2960 9054 c-75 -8 -223 -26 -249 -30 -63 -12 -190 -47 -251 -69 -25
-9 -81 -28 -125 -42 -44 -14 -84 -29 -90 -33 -5 -4 -28 -13 -50 -20 -61 -20
-181 -104 -277 -196 -51 -49 -131 -161 -171 -241 -15 -28 -31 -54 -36 -57 -18
-11 -120 -212 -160 -314 -44 -114 -103 -322 -120 -424 -31 -188 -44 -521 -28
-733 5 -60 10 -137 12 -170 11 -235 39 -362 143 -650 77 -211 154 -377 260
-555 108 -182 249 -392 333 -495 86 -106 279 -354 329 -422 19 -26 157 -200
305 -388 149 -187 300 -378 335 -425 35 -47 184 -236 330 -420 146 -184 320
-405 385 -490 65 -85 207 -265 315 -400 108 -135 274 -346 370 -470 95 -124
232 -296 304 -383 72 -87 141 -173 154 -190 13 -18 29 -38 36 -45 13 -14 72
-17 116 -8 14 3 41 9 60 12 34 7 206 65 245 84 11 5 47 19 80 31 33 12 71 26
85 32 14 6 27 11 30 12 3 1 18 7 33 13 16 7 31 12 35 12 4 1 25 9 47 20 22 11
44 19 48 20 5 0 32 11 60 24 29 13 93 40 142 60 113 46 156 65 175 75 56 30
219 112 240 121 14 5 32 14 40 19 8 6 74 45 145 87 122 73 182 111 430 272 74
48 143 107 268 231 252 249 359 358 424 437 236 287 256 315 547 749 181 272
239 373 256 451 11 46 10 47 -31 93 -22 25 -100 123 -173 216 -73 94 -200 252
-282 350 -83 99 -245 297 -359 440 -115 143 -275 339 -355 435 -80 96 -249
303 -375 460 -126 157 -274 339 -330 405 -56 66 -207 251 -335 410 -128 160
-265 328 -304 374 -131 154 -256 306 -303 366 -130 166 -258 307 -415 457
-192 184 -231 218 -404 341 -259 185 -477 301 -669 357 -101 29 -290 86 -375
113 -47 15 -47 15 -180 41 -31 6 -96 15 -145 21 -27 3 -70 11 -95 16 -44 11
-361 20 -430 13z"/>
<path d="M8737 3797 c-12 -13 -34 -43 -49 -68 -15 -24 -66 -100 -113 -169 -47
-69 -108 -160 -137 -204 -62 -92 -430 -586 -497 -666 -153 -184 -591 -650
-611 -650 -4 0 -40 -22 -81 -48 -206 -136 -711 -412 -880 -481 -18 -8 -68 -30
-109 -49 -96 -44 -124 -56 -185 -82 -27 -12 -59 -25 -70 -30 -80 -35 -165 -70
-172 -70 -4 0 -21 -7 -37 -15 -16 -9 -37 -17 -45 -19 -9 -2 -29 -8 -44 -14
-16 -7 -31 -12 -33 -12 -5 0 -69 -27 -179 -75 -16 -7 -55 -20 -85 -30 -100
-32 -104 -65 -19 -161 34 -38 75 -89 92 -114 67 -98 359 -416 373 -407 5 3 26
8 48 11 36 6 161 44 290 88 33 11 66 22 75 23 9 2 17 4 19 5 1 2 5 3 10 5 4 1
19 7 33 13 15 6 46 16 70 22 24 7 49 15 54 20 6 4 28 13 50 20 165 52 579 245
778 363 42 26 96 55 120 66 55 26 69 36 147 97 36 27 126 95 200 151 146 109
461 373 522 438 360 379 618 733 910 1245 48 85 88 162 88 171 0 29 -217 339
-306 439 -28 31 -69 84 -92 118 -64 94 -96 110 -135 69z"/>
</g>
</svg>
